Another Fine Release Brought to you from - IMAGiNE


********************************************************************************************************************
Lost Boys 3 The Thirst 2010 DVDRiP AC3 XViD - IMAGiNE
********************************************************************************************************************

Ripper ...........: IMAGiNE IMDB Rating.......:6.1/10
Video Codec.......: XVID Release Date......:11/10/10
Audio Codec.......:AC3 Theatre Date......:05/10/10
Audio Bitrate.....:448 Runtime.......:1h 21mn
Subtitles.........:NIL Language..........:ENGLISH
Resolution...... 720 x 304 IMDb URL..........:http://www.imdb.com/title/tt1400526/

DETAILS:

Video
ID : 0
Format : MPEG-4 Visual
Format profile : Advanced Simple@L5
Format settings, BVOP : Yes
Format settings, QPel : No
Format settings, GMC : No warppoints
Format settings, Matrix : Default (H.263)
Muxing mode : Packed bitstream
Codec ID : XVID
Codec ID/Hint : XviD
Duration : 1h 21mn
Bit rate : 2 073 Kbps
Width : 720 pixels
Height : 304 pixels
Display aspect ratio : 2.35
Frame rate : 23.976 fps
Resolution : 24 bits
Colorimetry : 4:2:0
Scan type : Progressive
Bits/(Pixel*Frame) : 0.395
Stream size : 1.18 GiB (84%)
Writing library : XviD 1.1.2 (UTC 2006-11-01)

Audio
ID : 1
Format : AC-3
Format/Info : Audio Coding 3
Codec ID : 2000
Duration : 1h 21mn
Bit rate mode : Constant

Bit rate : 384 Kbps
Channel(s) : 6 channels
Channel positions : Front: L C R, Surround: L R, LFE
Sampling rate : 48.0 KHz
Stream size : 223 MiB (16%)
Alignment : Aligned on interleaves
Interleave, duration : 42 ms (1.00 video frame)
Interleave, preload duration : 512 ms


SOURCES:

VIDEO:Lost Boys 3 The Thirst COMPLETE 2010 NTSC DVDR-KART3LDVD.......thanks
AUDIO:Lost Boys 3 The Thirst COMPLETE 2010 NTSC DVDR-KART3LDVD.......thanks

NOTES:

IMAGiNE bringing you another release..........Lost Boys 3

Right here we have a pretty simple rip of the DVDR....only some slight tweaking done eg increase brightness +2 chroma +5
add some sharpness aswell.
The audio was just stripped and then muxed back to our encode.
Film itself.....better than 2,but still pretty rubbish IMHO ,however the first was a classic ....still if nothng else to watch it's worth a look
 
http://imagine.takagari.com/LOST%20BOYS%203/vlcsnap-359821.png 
http://imagine.takagari.com/LOST%20BOYS%203/vlcsnap-361388.png 
http://imagine.takagari.com/LOST%20BOYS%203/vlcsnap-362009.png 
http://imagine.takagari.com/LOST%20BOYS%203/vlcsnap-362821.png